# xmcd CD database file
#
# Track frame offsets:
#	150
#	22711
#	46581
#	65917
#	90514
#	125641
#	150109
#	168208
#	190602
#	207505
#
# Disc length: 3012 seconds
#
# Revision: 0
# Processed by: cddbd v1.5.2PL0 Copyright (c) Steve Scherf et al.
# Submitted via: CDex 1.51
#
DISCID=710bc20a
DTITLE=Nature - Morning Moods
DYEAR=1900
DGENRE=New Age
TTITLE0=Forever young
TTITLE1=Remembering
TTITLE2=Heartbeat
TTITLE3=Early Morning
TTITLE4=Daybreak
TTITLE5=Misty
TTITLE6=Sun Kissed
TTITLE7=Cafe Prague
TTITLE8=Morning Glory
TTITLE9=Look into Your Eyes
EXTD=
EXTT0=
EXTT1=
EXTT2=
EXTT3=
EXTT4=
EXTT5=
EXTT6=
EXTT7=
EXTT8=
EXTT9=
PLAYORDER=
